<?xml version="1.0" standalone="no"?>
<!DOCTYPE svg PUBLIC "-//W3C//DTD SVG 20010904//EN"
 "http://www.w3.org/TR/2001/REC-SVG-20010904/DTD/svg10.dtd">
<svg version="1.0" xmlns="http://www.w3.org/2000/svg"
 width="530.000000pt" height="530.000000pt" viewBox="0 0 530.000000 530.000000"
 preserveAspectRatio="xMidYMid meet">
<metadata>
Created by potrace 1.11, written by Peter Selinger 2001-2013
</metadata>
<g transform="translate(0.000000,530.000000) scale(0.100000,-0.100000)"
fill="#000000" stroke="none">
<path d="M2648 5154 c-2 -1 -54 -4 -116 -6 -62 -2 -112 -5 -112 -8 0 -3 -24
-6 -53 -8 -89 -5 -107 -7 -107 -12 0 -3 -15 -6 -33 -7 -29 -3 -64 -8 -77 -13
-3 -1 -8 -2 -11 -2 -3 1 -27 -5 -52 -13 -26 -8 -47 -11 -47 -8 0 3 -7 0 -15
-7 -8 -7 -15 -10 -15 -7 0 3 -20 -1 -44 -8 -24 -8 -47 -11 -50 -8 -3 4 -6 1
-6 -5 0 -7 -7 -12 -15 -12 -9 0 -53 -14 -98 -32 -45 -17 -83 -29 -83 -27 -1 2
-12 -5 -24 -16 -12 -11 -23 -18 -24 -16 -2 8 -76 -21 -76 -30 0 -6 -4 -8 -9
-4 -5 3 -17 -2 -25 -11 -9 -8 -16 -12 -16 -8 0 3 -6 2 -12 -3 -7 -6 -40 -25
-73 -43 -33 -18 -83 -48 -112 -66 -28 -19 -56 -34 -61 -34 -6 0 -12 -4 -14 -8
-1 -4 -39 -34 -83 -67 -44 -32 -87 -65 -96 -74 -9 -9 -40 -36 -69 -61 -91 -78
-162 -152 -269 -279 -71 -83 -160 -209 -154 -215 4 -3 1 -6 -5 -6 -13 0 -59
-93 -66 -133 -11 -62 -28 -86 -39 -54 -2 6 -6 10 -9 7 -9 -11 -116 -239 -124
-265 -2 -5 -23 -67 -48 -137 -25 -71 -43 -128 -40 -128 4 0 1 -6 -5 -13 -11
-14 -5 -27 11 -27 5 0 6 5 2 11 -4 7 -1 10 6 7 23 -7 22 -24 -3 -49 -22 -22
-48 -81 -52 -119 -3 -24 -15 -103 -20 -130 -26 -144 -25 -573 0 -670 2 -8 7
-38 10 -67 6 -61 30 -178 35 -178 1 0 3 -11 5 -25 5 -40 46 -176 66 -215 6
-12 11 -28 13 -38 1 -9 5 -20 9 -23 4 -4 7 -17 7 -30 0 -12 5 -24 10 -26 6 -2
12 -13 14 -25 6 -31 56 -103 56 -80 0 9 -5 17 -11 17 -5 0 -8 4 -4 9 7 13 -17
101 -28 101 -4 0 -6 3 -4 8 3 4 0 18 -5 32 -6 14 -12 47 -14 74 -2 27 -8 52
-14 56 -7 4 -11 10 -11 14 1 3 1 7 0 9 -4 12 -10 44 -11 55 -1 6 -6 12 -11 12
-6 0 -8 2 -5 5 3 3 1 27 -4 53 -13 66 -18 162 -9 162 5 0 11 -24 14 -53 7 -66
34 -182 53 -224 8 -17 14 -36 14 -43 0 -7 15 -44 34 -84 31 -65 44 -108 52
-176 1 -14 3 -26 4 -27 2 -2 3 -6 4 -10 1 -5 14 -34 29 -66 30 -61 49 -67 43
-13 -3 17 0 39 5 47 5 7 9 10 10 4 3 -37 26 -112 47 -153 12 -24 23 -32 43
-32 24 0 67 -36 83 -71 6 -13 3 20 -8 86 -3 20 5 9 24 -33 16 -34 34 -62 39
-62 13 0 22 16 14 24 -4 4 -8 17 -10 29 -10 65 -56 119 -125 149 -10 4 -18 14
-18 23 0 12 9 15 37 13 45 -4 47 5 20 77 -10 28 -20 57 -22 65 -2 8 -4 15 -5
15 -2 0 -10 34 -14 60 -2 11 -4 20 -5 20 -1 0 -4 15 -7 34 -15 119 -24 138
-84 185 -8 6 -21 21 -27 33 -11 20 -11 22 5 16 9 -3 22 -11 27 -18 6 -6 17
-14 26 -17 12 -5 15 -1 13 15 -10 70 -13 87 -18 96 -17 26 -25 355 -11 441 4
25 9 59 10 75 2 17 4 32 6 35 1 3 3 10 4 15 13 87 17 105 24 105 5 0 7 -21 4
-47 -8 -96 -9 -289 0 -333 4 -25 10 -56 13 -69 3 -13 13 -36 24 -50 16 -24 17
-30 4 -60 -16 -38 -12 -48 22 -61 27 -11 44 -42 26 -48 -15 -5 -16 -54 -1 -69
6 -6 12 -33 14 -59 4 -53 11 -89 19 -102 3 -5 8 -22 11 -38 7 -33 10 -43 18
-64 3 -8 13 -35 21 -60 31 -96 68 -185 87 -212 11 -15 18 -28 15 -28 -3 0 8
-19 24 -43 17 -23 47 -67 67 -97 21 -30 40 -57 43 -60 3 -3 22 -27 44 -53 47
-59 97 -107 112 -107 6 0 29 -18 50 -41 22 -22 58 -60 81 -84 30 -31 44 -54
47 -80 6 -49 123 -193 159 -196 19 -1 47 -7 63 -13 12 -4 12 -10 4 -26 -8 -15
-8 -20 1 -20 8 0 8 -4 -1 -15 -15 -18 -7 -53 19 -86 19 -24 25 -25 133 -20 15
0 33 7 40 14 7 7 19 12 26 11 6 -1 17 -2 22 -3 6 0 10 -9 8 -18 -2 -11 11 -25
35 -38 20 -12 48 -31 61 -43 29 -25 131 -48 141 -32 12 19 61 0 90 -33 35 -41
85 -58 86 -30 2 39 10 77 31 138 10 31 19 40 43 45 17 4 40 12 53 19 20 11 26
9 52 -19 l30 -32 1 28 c1 16 1 32 1 36 -3 16 33 31 81 34 28 2 86 6 127 9 41
4 89 8 105 9 17 1 40 7 51 13 13 8 33 9 50 5 72 -19 99 4 108 90 5 46 40 137
54 139 4 1 17 3 30 4 29 3 29 4 35 41 3 17 14 48 24 69 20 37 22 38 75 39 30
1 62 7 70 14 8 6 23 49 33 95 9 45 29 111 42 147 18 46 26 90 28 150 4 104 18
206 30 218 11 12 18 -10 19 -65 1 -32 5 -64 10 -71 4 -7 2 -12 -5 -12 -8 0 -9
-3 0 -13 6 -8 8 -17 4 -20 -9 -9 19 -8 33 1 6 4 10 40 10 90 -1 45 2 82 5 82
9 0 21 40 21 68 1 15 6 22 16 20 13 -2 16 -23 19 -103 2 -54 7 -103 11 -107
10 -10 68 26 69 43 1 8 4 34 8 59 4 25 7 51 8 58 0 13 16 17 18 5 1 -5 3 -53
5 -108 10 -265 6 -374 -15 -413 -11 -20 -10 -197 1 -208 12 -11 64 6 91 31 14
14 30 25 34 25 12 0 138 138 171 186 19 28 26 54 29 99 2 33 5 67 6 75 12 51
20 68 31 64 12 -5 13 -63 1 -158 -5 -44 -4 -48 10 -36 9 8 23 26 31 41 8 16
23 33 33 38 17 10 18 7 10 -36 -5 -25 -7 -48 -5 -50 1 -2 16 16 31 39 15 24
37 53 48 66 11 12 17 22 13 22 -4 0 9 16 29 37 19 20 35 42 35 50 0 7 5 13 10
13 6 0 10 4 10 9 0 8 150 254 168 277 5 5 22 30 38 55 16 24 32 46 35 49 12 9
69 130 62 130 -4 0 1 6 11 13 10 7 19 29 21 50 2 21 7 42 10 47 4 6 8 23 10
38 5 38 14 92 22 127 3 17 6 56 5 89 -1 32 5 74 13 92 8 19 12 34 9 34 -3 0 0
9 6 20 16 31 24 130 16 205 -1 11 2 26 7 33 6 8 5 12 -4 12 -10 0 -10 3 -1 12
8 8 8 17 1 31 -6 11 -7 17 -2 14 4 -3 8 48 8 114 0 65 -4 119 -9 119 -4 0 -3
6 3 13 13 16 -9 40 -46 51 -13 4 -23 13 -24 19 -2 24 3 100 7 121 3 11 7 46 9
76 2 30 6 64 9 75 2 11 5 32 5 46 1 15 8 30 17 33 8 3 12 2 9 -4 -3 -6 -3 -10
2 -10 4 0 8 -24 8 -53 -1 -28 1 -56 4 -61 2 -5 6 -32 8 -59 3 -36 12 -60 34
-87 16 -20 31 -51 34 -68 2 -18 12 -47 23 -65 17 -27 20 -52 22 -172 5 -420 2
-539 -15 -720 -3 -38 -56 -155 -70 -155 -18 0 -42 -35 -64 -94 -11 -31 -21
-58 -21 -61 0 -3 0 -6 -1 -7 0 -2 -3 -14 -5 -28 -2 -13 -8 -27 -12 -30 -5 -3
-20 -21 -34 -40 -19 -26 -24 -40 -18 -56 18 -47 6 -100 -39 -170 -24 -38 -47
-71 -51 -74 -10 -7 -18 -37 -26 -95 -3 -27 -12 -60 -21 -73 -17 -27 -53 -65
-53 -56 0 4 -7 1 -15 -6 -8 -7 -12 -16 -9 -21 3 -5 1 -9 -3 -9 -5 0 -14 -21
-21 -46 -11 -41 -34 -83 -67 -121 -28 -33 -34 -43 -60 -88 -15 -27 -37 -58
-49 -68 -60 -52 -86 -78 -86 -87 0 -6 -5 -10 -10 -10 -6 0 -34 -25 -63 -56
-28 -31 -68 -66 -87 -79 -19 -12 -68 -50 -108 -84 -41 -33 -78 -59 -83 -55 -5
3 -9 1 -9 -5 0 -10 -38 -27 -52 -23 -5 1 -8 -3 -8 -9 0 -5 -4 -7 -10 -4 -5 3
-18 -12 -27 -35 -10 -22 -21 -40 -25 -40 -5 0 -8 -4 -8 -10 0 -6 9 -6 23 -1
25 10 31 11 53 11 13 0 14 3 5 14 -23 27 3 60 69 89 19 8 46 25 60 38 13 13
28 23 32 22 5 -2 8 2 8 8 0 5 3 8 8 6 12 -8 59 16 96 50 20 18 38 33 41 33 3
0 23 13 45 29 27 19 52 29 76 29 21 0 48 9 64 20 15 12 30 18 33 15 9 -8 -39
-53 -60 -56 -38 -6 -150 -91 -173 -131 l-23 -41 25 23 c13 12 30 22 36 22 7 0
12 5 12 12 0 6 3 9 6 5 6 -6 105 68 204 152 66 56 239 229 296 297 35 41 39
50 25 55 -22 9 -52 -11 -130 -92 -37 -38 -72 -69 -78 -69 -6 0 -14 -6 -16 -12
-4 -10 -6 -10 -6 1 -1 7 23 37 52 66 88 89 97 102 97 144 0 21 6 44 14 50 8 7
31 47 51 89 21 42 40 79 44 82 7 6 29 40 38 60 3 8 19 33 33 55 30 44 101 181
99 192 0 3 6 10 15 15 9 5 14 13 12 17 -3 4 10 25 29 45 28 31 44 69 50 116 3
29 34 73 63 91 l37 21 -24 19 c-25 21 -24 55 4 83 8 8 15 26 15 40 0 31 15 40
62 39 21 -1 38 3 38 8 0 5 -7 9 -15 9 -24 0 -23 69 1 83 8 4 14 13 14 18 0 6
-4 7 -10 4 -5 -3 -10 -2 -10 4 0 5 -3 16 -6 24 -3 8 4 24 16 34 11 11 23 31
25 44 3 13 15 31 27 40 21 16 22 24 22 160 0 189 -11 331 -35 454 -5 28 -11
59 -13 70 -6 33 -20 110 -21 115 0 3 -4 11 -8 18 -5 6 -6 12 -3 12 3 0 1 11
-4 25 -5 14 -12 36 -14 48 -2 12 -21 67 -41 122 -20 55 -43 121 -51 148 -8 26
-19 47 -25 47 -6 0 -7 5 -4 10 3 6 1 10 -5 10 -6 0 -9 4 -6 9 3 5 -3 20 -14
34 -11 14 -20 31 -20 39 0 11 -35 77 -114 213 -22 37 -69 110 -75 115 -3 3
-18 23 -33 45 -27 42 -49 71 -83 110 -11 13 -33 40 -50 60 -43 52 -203 213
-260 260 -26 22 -61 52 -79 67 -17 15 -34 28 -38 28 -4 0 -13 7 -22 15 -18 18
-165 118 -216 148 -19 11 -60 33 -90 49 -30 17 -59 34 -65 38 -5 5 -12 8 -15
8 -3 0 -26 9 -52 21 -121 54 -138 61 -142 61 -3 0 -17 5 -33 12 -15 6 -31 12
-35 13 -5 2 -9 3 -10 5 -2 1 -11 3 -21 5 -10 2 -26 7 -35 11 -23 9 -37 13
-137 39 -92 23 -108 27 -135 30 -14 2 -36 7 -50 10 -34 8 -96 16 -147 18 -24
1 -43 4 -43 7 0 3 -27 6 -60 5 -33 0 -60 4 -60 9 0 5 -6 3 -13 -3 -8 -6 -16
-9 -18 -7 -6 6 -67 15 -71 10z m962 -279 c0 -24 -5 -35 -15 -35 -10 0 -15 11
-15 35 0 24 5 35 15 35 10 0 15 -11 15 -35z m-48 -249 c8 -41 -22 -76 -36 -41
-7 18 10 65 23 65 5 0 11 -11 13 -24z m-78 -181 c-6 -16 -24 -21 -24 -7 0 11
11 22 21 22 5 0 6 -7 3 -15z m-229 -455 c-8 -42 -38 -56 -47 -22 -7 27 2 42
27 42 18 0 23 -5 20 -20z m-1570 -157 c-2 -10 -4 -20 -4 -22 -1 -3 -7 1 -13 7
-10 10 -10 15 2 22 19 12 19 13 15 -7z m-92 -39 c13 -4 13 -11 5 -37 -19 -55
-39 -79 -54 -66 -11 9 -10 16 7 40 11 16 21 38 22 49 1 11 2 20 3 20 1 0 9 -3
17 -6z m466 -26 c0 -7 -4 -22 -8 -32 -10 -26 -25 -3 -16 24 7 22 25 28 24 8z
m581 -24 c0 -8 -7 -14 -15 -14 -15 0 -21 21 -9 33 10 9 24 -2 24 -19z m1123
-20 c3 -3 1 -17 -5 -30 -13 -28 -29 -14 -21 17 5 19 15 24 26 13z m-833 -18
c0 -22 -29 -41 -42 -28 -8 8 -8 15 2 27 16 19 40 20 40 1z m674 -11 c7 -20 -4
-47 -18 -42 -10 3 -11 14 -7 47 2 15 18 12 25 -5z m-424 -57 c0 -17 -3 -29 -6
-25 -10 10 -12 67 -3 61 5 -3 9 -19 9 -36z m629 -10 c0 -27 -2 -29 -8 -13 -5
11 -6 26 -4 33 8 21 13 13 12 -20z m-939 -7 c0 -11 -5 -23 -11 -27 -14 -8 -29
14 -22 33 8 20 33 16 33 -6z m-1289 -66 c-5 -5 -8 -17 -8 -25 -1 -32 -11 -99
-18 -110 -3 -5 -6 -59 -6 -120 0 -60 -3 -111 -8 -114 -11 -7 -27 51 -26 99 0
26 -5 42 -15 46 -20 8 -75 -53 -101 -113 -21 -46 -43 -62 -51 -36 -3 7 5 30
17 52 21 41 23 76 4 76 -17 0 -69 -30 -69 -40 0 -6 -6 -10 -14 -10 -8 0 -13 9
-12 23 1 12 -4 34 -11 49 -7 15 -10 34 -7 42 4 10 0 18 -10 22 -28 11 -18 27
11 19 15 -3 76 -8 134 -10 103 -4 107 -3 114 18 11 32 12 37 15 40 1 1 3 10 5
20 2 9 13 38 25 63 16 32 25 42 31 33 4 -7 4 -18 0 -24z m1539 -24 c6 -16 10
-38 8 -48 -2 -12 -10 -1 -20 30 -18 51 -8 66 12 18z m-2169 -91 c-5 -3 -14
-22 -22 -42 -13 -37 -39 -56 -59 -43 -12 8 -6 19 39 74 24 30 37 38 42 29 4
-7 4 -15 0 -18z m3169 20 c0 -5 -2 -10 -4 -10 -3 0 -8 5 -11 10 -3 6 -1 10 4
10 6 0 11 -4 11 -10z m-336 -29 c3 -5 -1 -14 -8 -20 -12 -10 -13 -8 -9 8 6 23
9 25 17 12z m-34 -82 c0 -18 -2 -20 -15 -9 -13 11 -13 15 -3 21 18 12 18 12
18 -12z m-1916 -98 c7 -11 -14 -27 -34 -25 -33 3 -34 5 -16 19 22 17 42 19 50
6z m2312 -87 c-9 -23 -25 -16 -20 9 15 66 16 68 21 34 3 -16 2 -35 -1 -43z
m-2605 -424 c30 -16 24 -40 -8 -35 -16 2 -36 6 -46 10 -17 7 -17 8 0 21 22 16
29 17 54 4z m2849 3 c-1 -19 -29 -88 -37 -90 -11 -4 -10 41 1 75 7 20 36 32
36 15z m-2385 -277 c18 -14 50 -42 72 -63 41 -38 74 -66 113 -93 12 -8 34 -25
48 -37 15 -13 30 -23 35 -23 4 0 7 -7 7 -15 0 -20 -14 -19 -48 2 -33 21 -117
88 -156 125 -17 15 -33 28 -36 28 -4 0 -18 10 -32 23 -14 12 -40 34 -58 50
l-32 27 28 0 c15 0 42 -11 59 -24z m-1695 -211 c0 -8 -4 -15 -10 -15 -5 0 -7
7 -4 15 4 8 8 15 10 15 2 0 4 -7 4 -15z m2046 -98 c1 -9 -4 -17 -12 -17 -8 0
-14 9 -14 21 0 24 22 21 26 -4z m231 -183 c9 -25 -12 -38 -31 -18 -14 14 -15
19 -4 25 19 13 28 11 35 -7z m-2067 -115 c0 -7 9 -9 24 -5 22 5 24 4 21 -32
-2 -20 -4 -39 -5 -42 -1 -3 -2 -19 -2 -37 0 -20 -4 -30 -11 -27 -13 5 -37 51
-37 71 0 7 -3 13 -8 13 -4 0 -7 16 -8 35 0 23 4 35 13 35 7 0 13 -5 13 -11z
m2157 -17 c11 -7 16 -25 14 -54 -2 -29 -38 -10 -43 23 -6 38 3 48 29 31z m430
-227 c9 -27 8 -213 0 -259 -2 -10 -12 -25 -22 -32 -10 -8 -16 -14 -12 -14 4 0
-1 -9 -10 -20 -17 -20 -18 -20 -31 6 -11 22 -11 29 2 49 16 25 18 105 2 105
-5 0 -4 6 2 13 7 8 7 18 2 27 -5 8 -6 18 -3 23 6 10 10 47 16 162 2 33 10 72
18 85 13 24 14 21 20 -45 4 -38 11 -83 16 -100z m743 -35 c0 -21 -8 -25 -26
-12 -13 9 -24 38 -17 46 11 11 43 -15 43 -34z m-2785 -80 c-3 -5 2 -15 10 -23
19 -19 19 -37 1 -37 -13 0 -23 24 -33 74 -3 16 -1 17 12 6 8 -7 13 -16 10 -20z
m1542 -63 c-4 -12 -37 -18 -50 -10 -4 3 -1 14 9 24 13 15 20 16 31 7 7 -6 12
-16 10 -21z m-936 -57 c5 -43 -8 -113 -19 -106 -4 2 -6 19 -5 38 1 18 2 43 2
56 1 21 20 32 22 12z m954 -1 c-4 -6 -9 -8 -12 -5 -3 3 -12 -1 -20 -9 -16 -16
-43 -20 -43 -7 0 11 39 30 63 31 10 1 15 -4 12 -10z m455 -140 c0 -20 -29 -59
-31 -42 -4 29 -3 39 5 51 13 18 26 14 26 -9z m-1639 -61 c13 -17 36 -47 52
-66 30 -39 33 -54 13 -71 -10 -9 -16 -8 -26 4 -7 8 -17 12 -24 8 -6 -3 -8 -3
-4 2 4 4 -2 15 -13 24 -10 9 -20 28 -21 44 -1 15 -8 27 -15 27 -14 0 -14 1
-18 38 -3 33 27 28 56 -10z m1613 -86 c2 -4 1 -14 -4 -21 -10 -17 -31 -5 -23
14 6 16 19 20 27 7z m-624 -173 c0 -28 -4 -39 -12 -36 -17 5 -17 77 -1 77 8 0
13 -15 13 -41z m-691 -160 c2 -8 -10 -5 -29 7 -18 10 -36 26 -38 34 -4 10 5 7
29 -8 18 -11 35 -26 38 -33z m44 -91 c-7 -13 -23 -9 -30 8 -3 9 0 20 8 25 14
8 31 -18 22 -33z m64 15 c-8 -7 -37 9 -31 19 3 5 12 4 20 -3 8 -6 13 -14 11
-16z"/>
<path d="M447 1548 c-4 -13 22 -70 36 -76 4 -2 5 -8 1 -13 -3 -5 0 -9 7 -9 7
0 10 -3 6 -6 -6 -6 16 -34 27 -34 10 0 7 27 -5 54 -7 14 -16 23 -20 20 -5 -3
-9 4 -9 15 0 12 -4 21 -10 21 -5 0 -10 6 -10 14 0 20 -17 29 -23 14z"/>
<path d="M530 1385 c0 -12 61 -109 74 -117 6 -4 7 -8 2 -8 -6 0 1 -12 15 -27
14 -16 44 -53 66 -83 23 -30 60 -74 82 -97 22 -24 37 -43 34 -43 -2 0 8 -13
24 -29 15 -15 44 -46 64 -67 46 -50 107 -105 239 -215 14 -11 37 -28 53 -37
15 -9 27 -20 27 -25 0 -4 4 -6 9 -2 21 13 0 53 -61 118 -16 16 -28 31 -28 33
0 3 -8 14 -18 25 -11 10 -25 32 -33 47 -8 15 -21 35 -30 45 -9 10 -22 35 -29
56 -14 44 -97 144 -111 135 -5 -3 -9 -1 -9 4 0 6 -20 16 -44 23 -53 16 -51 35
4 33 22 -1 43 2 46 8 8 12 -46 90 -60 85 -6 -2 -11 -9 -11 -14 0 -16 -15 -29
-16 -15 -3 26 -4 31 -10 37 -4 3 -19 8 -34 11 -19 3 -24 1 -19 -7 5 -8 3 -9
-7 -4 -7 5 -21 10 -30 10 -14 1 -15 -3 -8 -22 13 -36 -7 -28 -56 20 -23 23
-52 48 -63 56 -12 8 -19 18 -17 21 3 4 -7 18 -20 30 -14 13 -25 20 -25 15z"/>
<path d="M1351 546 c7 -6 102 -58 179 -99 41 -21 79 -43 85 -48 5 -5 17 -9 27
-9 10 0 18 -4 18 -10 0 -5 3 -9 8 -8 4 1 18 -3 32 -9 52 -21 200 -74 217 -78
10 -2 30 -8 46 -14 15 -6 27 -8 27 -5 0 4 6 2 13 -4 7 -6 24 -13 37 -15 14 -3
36 -8 50 -11 14 -3 39 -7 55 -10 17 -2 46 -7 65 -10 107 -20 121 -12 37 18
-27 10 -53 27 -60 37 -6 10 -17 19 -24 19 -6 0 -13 4 -15 8 -8 21 -128 92
-164 97 -91 13 -112 13 -107 -2 3 -7 16 -16 29 -19 13 -3 24 -10 24 -15 0 -5
4 -9 9 -9 17 0 131 -72 131 -82 0 -6 -8 -7 -17 -3 -10 4 -22 8 -28 9 -14 4
-46 16 -75 28 -14 6 -31 12 -38 14 -7 1 -31 12 -52 23 -22 11 -40 18 -40 15 0
-2 -10 1 -22 8 -13 7 -25 13 -28 13 -3 0 -20 9 -37 18 -18 10 -33 15 -33 13 0
-3 -28 9 -62 26 -35 17 -69 31 -75 31 -7 0 -13 4 -13 9 0 4 -5 8 -11 8 -5 0
-29 9 -52 19 -23 11 -45 20 -50 20 -4 0 -23 8 -43 16 -35 14 -52 19 -43 11z"/>
</g>
</svg>
